<?xml version="1.0" encoding="UTF-8"?> <svg xmlns="http://www.w3.org/2000/svg" id="Layer_1" version="1.1" viewBox="0 0 1163.52 368.35"><g><path d="M163.9,102.12v164.28c0,2.02.8,3.95,2.23,5.37l13.28,13.28c4.79,4.79,12.97,1.4,12.97-5.37V88.84c0-6.77-8.19-10.16-12.97-5.37h0s-13.28,13.28-13.28,13.28c-1.43,1.43-2.23,3.36-2.23,5.37Z"></path><path d="M300.27,164.06l-80.75-80.74c-4.79-4.79-12.97-1.4-12.97,5.37v18.77c0,2.02.8,3.95,2.23,5.37l65.98,65.99c2.97,2.97,2.97,7.78,0,10.75l-65.98,65.98c-1.43,1.43-2.23,3.36-2.23,5.37v18.78c0,6.77,8.19,10.16,12.97,5.37l80.75-80.75,14.76-14.76c2.97-2.97,2.97-7.78,0-10.75l-14.76-14.76Z"></path><path d="M123.48,229.13l13.28,13.28c4.79,4.79,12.97,1.4,12.97-5.37v-105.55c0-6.77-8.19-10.16-12.97-5.37l-13.28,13.28c-1.43,1.43-2.23,3.36-2.23,5.37v78.99c0,2.02.8,3.95,2.23,5.37Z"></path><path d="M107.09,194.39v-20.26c0-6.77-8.19-10.16-12.97-5.37l-10.13,10.13c-2.97,2.97-2.97,7.78,0,10.75l10.13,10.13c4.79,4.79,12.97,1.4,12.97-5.37Z"></path></g><g><path d="M369.13,132.63h32.9c27.37,0,52.59,15.68,52.59,49.66,0,31.83-23.06,51.82-53.35,51.82h-32.44l.31-101.48ZM401.57,218.12c22.45,0,37.06-15.68,37.06-34.9.15-20.45-14.15-34.6-36.13-34.6h-19.07v69.5h18.14Z"></path><path d="M513.96,154.62c21.07,0,38.29,13.99,40.44,36.75.15,2.31.15,4.92,0,7.23l-65.04.15c1.38,13.22,12.3,22.45,24.6,22.45,8.76.15,18.14-3.84,22.45-12.15l13.07,6.92c-6.92,12.3-20.3,19.68-35.52,19.68-21.53,0-41.21-15.99-41.21-40.28,0-26.45,19.68-40.75,41.21-40.75ZM513.96,168.92c-10.61,0-21.53,7.07-23.37,19.99l47.36-.15c-2.31-13.07-13.22-19.99-23.99-19.83Z"></path><path d="M572.69,156.16h16.91v10.76c6-9.07,19.07-12.15,29.52-10.3l-2.77,15.53c-11.38-3.23-26.75.62-26.75,16.61v45.36h-16.91v-77.95Z"></path><path d="M637.27,156.16h16.91v14.61c3.08-7.84,11.99-16.14,24.14-16.3,13.38-.15,24.45,7.23,27.68,19.07,3.84-10.61,12.92-18.45,25.68-18.91,20.3-.92,35.06,11.84,35.06,35.98v43.51h-16.91v-40.9c0-13.99-6.46-24.14-19.68-24.14-11.69,0-19.37,10.15-19.37,24.29v40.75h-16.76v-40.9c0-13.99-7.53-24.29-20.45-24.14-11.84.15-19.22,10.61-19.22,23.22l-.31,41.82h-16.76v-77.95Z"></path><path d="M784.87,212.59c-.46-16.14,10.61-24.29,28.29-25.83,7.38-.46,17.07-.77,23.68-.77-.31-10.3-4.77-17.99-16.76-17.99-8.46,0-16.91,4.46-18.3,13.84h-15.22c1.84-18.76,17.37-27.22,33.37-27.22,22.76-.15,33.83,13.99,33.83,38.13v41.36h-16.76v-16.61c-3.54,8.3-10.3,16.45-22.6,17.99-15.99,2-28.91-7.69-29.52-22.91ZM820.23,222.12c10.15-2.15,16.91-11.84,16.6-25.68-5.69-.31-12.45-.15-18.6.31-9.69.77-17.07,4.61-16.91,13.84.15,9.53,9.84,13.38,18.91,11.53Z"></path><path d="M871.89,132.63h16.91v101.48h-16.91v-101.48Z"></path><path d="M906.94,198.75v-42.74h16.91v39.52c0,15.68,7.69,25.68,22.3,25.52,14.61-.15,21.83-12.15,21.83-28.6l.15-36.44h16.76v77.95h-16.91v-15.22c-4.61,11.84-15.53,16.76-25.83,16.91-21.53.62-35.21-12.61-35.21-36.9Z"></path><path d="M1032.25,194.6l-27.21-38.44h17.68l19.68,27.83,19.37-27.83h17.68l-26.91,38.44,29.21,39.52h-17.68l-21.68-29.83-21.68,29.83h-17.68l29.21-39.52Z"></path></g></svg> 